<svg width="32" height="32" viewBox="0 0 32 32" fill="none" xmlns="http://www.w3.org/2000/svg">
<rect width="32" height="32" rx="16" fill="#8D4AFC"/>
<path d="M20.854 15.3538C20.8076 15.4003 20.7524 15.4371 20.6917 15.4623C20.631 15.4875 20.566 15.5004 20.5003 15.5004C20.4346 15.5004 20.3695 15.4875 20.3088 15.4623C20.2481 15.4371 20.193 15.4003 20.1465 15.3538L16.5003 11.7069V21.5C16.5003 21.6326 16.4476 21.7598 16.3538 21.8536C16.2601 21.9473 16.1329 22 16.0003 22C15.8677 22 15.7405 21.9473 15.6467 21.8536C15.553 21.7598 15.5003 21.6326 15.5003 21.5V11.7069L11.854 15.3538C11.7602 15.4476 11.633 15.5003 11.5003 15.5003C11.3676 15.5003 11.2403 15.4476 11.1465 15.3538C11.0527 15.26 11 15.1327 11 15C11 14.8673 11.0527 14.7401 11.1465 14.6463L15.6465 10.1463C15.693 10.0998 15.7481 10.0629 15.8088 10.0377C15.8695 10.0126 15.9346 9.99963 16.0003 9.99963C16.066 9.99963 16.131 10.0126 16.1917 10.0377C16.2524 10.0629 16.3076 10.0998 16.354 10.1463L20.854 14.6463C20.9005 14.6927 20.9374 14.7479 20.9626 14.8086C20.9877 14.8693 21.0007 14.9343 21.0007 15C21.0007 15.0657 20.9877 15.1308 20.9626 15.1915C20.9374 15.2522 20.9005 15.3073 20.854 15.3538Z" fill="white"/>
</svg>
