<svg width="62" height="20" viewBox="0 0 62 20" fill="none" xmlns="http://www.w3.org/2000/svg">
<path d="M9.64597 15.3538L4.64597 10.3538C4.59948 10.3073 4.5626 10.2522 4.53744 10.1915C4.51228 10.1308 4.49933 10.0657 4.49933 10C4.49933 9.9343 4.51228 9.86923 4.53744 9.80853C4.5626 9.74783 4.59948 9.69269 4.64597 9.64625L9.64597 4.64625C9.73979 4.55243 9.86704 4.49973 9.99972 4.49973C10.1324 4.49973 10.2597 4.55243 10.3535 4.64625C10.4473 4.74007 10.5 4.86732 10.5 5C10.5 5.13269 10.4473 5.25993 10.3535 5.35375L5.7066 10L10.3535 14.6463C10.3999 14.6927 10.4368 14.7479 10.4619 14.8086C10.4871 14.8693 10.5 14.9343 10.5 15C10.5 15.0657 10.4871 15.1308 10.4619 15.1915C10.4368 15.2521 10.3999 15.3073 10.3535 15.3538C10.307 15.4002 10.2519 15.4371 10.1912 15.4622C10.1305 15.4873 10.0654 15.5003 9.99972 15.5003C9.93402 15.5003 9.86897 15.4873 9.80827 15.4622C9.74758 15.4371 9.69243 15.4002 9.64597 15.3538Z" fill="#343330"/>
<path d="M27.952 15V4.99H29.072V15H27.952ZM22.604 15H21.484V4.99H22.604V15ZM22.464 10.296V9.302H28.078V10.296H22.464ZM37.0927 15H36.0707V13.656L36.0567 13.264V10.702C36.0567 10.1233 35.8794 9.666 35.5247 9.33C35.1794 8.98467 34.7034 8.812 34.0967 8.812C33.3034 8.812 32.6314 9.14333 32.0807 9.806L31.3807 9.12C32.1647 8.29867 33.0934 7.888 34.1667 7.888C34.7547 7.888 35.268 8.00467 35.7067 8.238C36.1454 8.462 36.486 8.784 36.7287 9.204C36.9714 9.61467 37.0927 10.1 37.0927 10.66V15ZM33.6347 15.224C33.1494 15.224 32.72 15.1307 32.3467 14.944C31.9734 14.7573 31.6794 14.5007 31.4647 14.174C31.2594 13.838 31.1567 13.46 31.1567 13.04C31.1567 12.34 31.4227 11.7847 31.9547 11.374C32.496 10.9633 33.2194 10.758 34.1247 10.758H36.1827V11.626H34.2507C33.6254 11.626 33.14 11.7473 32.7947 11.99C32.4494 12.2233 32.2767 12.5593 32.2767 12.998C32.2767 13.3993 32.412 13.7213 32.6827 13.964C32.9627 14.2067 33.3314 14.328 33.7887 14.328C34.2367 14.328 34.638 14.2347 34.9927 14.048C35.3474 13.852 35.632 13.586 35.8467 13.25C36.0614 12.9047 36.1827 12.5127 36.2107 12.074L36.6167 12.312C36.6167 12.872 36.486 13.3713 36.2247 13.81C35.9727 14.2487 35.6227 14.594 35.1747 14.846C34.7267 15.098 34.2134 15.224 33.6347 15.224ZM41.7263 15.224C40.3916 15.224 39.3649 14.776 38.6463 13.88L39.3743 13.18C39.6263 13.544 39.9389 13.8193 40.3123 14.006C40.6949 14.1927 41.1196 14.286 41.5863 14.286C42.1369 14.286 42.5756 14.1693 42.9023 13.936C43.2289 13.7027 43.3923 13.3853 43.3923 12.984C43.3923 12.256 42.8556 11.892 41.7823 11.892H40.3683V10.982H41.8103C42.2489 10.982 42.5896 10.8933 42.8323 10.716C43.0843 10.5387 43.2103 10.2867 43.2103 9.96C43.2103 9.60533 43.0609 9.33 42.7623 9.134C42.4636 8.92867 42.0669 8.826 41.5723 8.826C40.6949 8.826 39.9949 9.18533 39.4723 9.904L38.7723 9.218C39.5096 8.33133 40.4523 7.888 41.6003 7.888C42.1416 7.888 42.6176 7.972 43.0283 8.14C43.4389 8.29867 43.7563 8.52733 43.9803 8.826C44.2136 9.11533 44.3303 9.456 44.3303 9.848C44.3303 10.2493 44.2089 10.59 43.9663 10.87C43.7329 11.15 43.3969 11.3553 42.9583 11.486V11.262C43.4529 11.3927 43.8356 11.6167 44.1063 11.934C44.3769 12.2513 44.5123 12.6293 44.5123 13.068C44.5123 13.4787 44.3909 13.8473 44.1483 14.174C43.9056 14.5007 43.5743 14.7573 43.1543 14.944C42.7436 15.1307 42.2676 15.224 41.7263 15.224ZM51.954 15H50.932V13.656L50.918 13.264V10.702C50.918 10.1233 50.7407 9.666 50.386 9.33C50.0407 8.98467 49.5647 8.812 48.958 8.812C48.1647 8.812 47.4927 9.14333 46.942 9.806L46.242 9.12C47.026 8.29867 47.9547 7.888 49.028 7.888C49.616 7.888 50.1293 8.00467 50.568 8.238C51.0067 8.462 51.3473 8.784 51.59 9.204C51.8327 9.61467 51.954 10.1 51.954 10.66V15ZM48.496 15.224C48.0107 15.224 47.5813 15.1307 47.208 14.944C46.8347 14.7573 46.5407 14.5007 46.326 14.174C46.1207 13.838 46.018 13.46 46.018 13.04C46.018 12.34 46.284 11.7847 46.816 11.374C47.3573 10.9633 48.0807 10.758 48.986 10.758H51.044V11.626H49.112C48.4867 11.626 48.0013 11.7473 47.656 11.99C47.3107 12.2233 47.138 12.5593 47.138 12.998C47.138 13.3993 47.2733 13.7213 47.544 13.964C47.824 14.2067 48.1927 14.328 48.65 14.328C49.098 14.328 49.4993 14.2347 49.854 14.048C50.2087 13.852 50.4933 13.586 50.708 13.25C50.9227 12.9047 51.044 12.5127 51.072 12.074L51.478 12.312C51.478 12.872 51.3473 13.3713 51.086 13.81C50.834 14.2487 50.484 14.594 50.036 14.846C49.588 15.098 49.0747 15.224 48.496 15.224ZM53.1856 16.778V14.09H53.7596C53.9182 14.09 54.0396 14.048 54.1236 13.964C54.2169 13.88 54.2916 13.7353 54.3476 13.53C54.4036 13.3247 54.4502 13.0493 54.4876 12.704L54.9916 8.112H59.5276V14.44H58.4496V8.672L58.7996 9.022H55.6216L56.0136 8.672L55.5236 12.788C55.4209 13.5907 55.2342 14.118 54.9636 14.37L54.8236 14.09H60.4096V16.778H59.3876V14.65L59.7376 15H53.8576L54.2076 14.65V16.778H53.1856Z" fill="black"/>
</svg>
