<svg width="16" height="32" viewBox="0 0 16 32" fill="none" xmlns="http://www.w3.org/2000/svg">
<path d="M12.854 20.1462C12.9005 20.1927 12.9373 20.2478 12.9625 20.3085C12.9876 20.3692 13.0006 20.4343 13.0006 20.5C13.0006 20.5657 12.9876 20.6307 12.9625 20.6914C12.9373 20.7521 12.9005 20.8073 12.854 20.8537C12.8076 20.9002 12.7524 20.937 12.6917 20.9622C12.631 20.9873 12.566 21.0003 12.5003 21.0003C12.4346 21.0003 12.3695 20.9873 12.3088 20.9622C12.2481 20.937 12.193 20.9002 12.1465 20.8537L8.00028 16.7068L3.85403 20.8537C3.76021 20.9475 3.63296 21.0003 3.50028 21.0003C3.3676 21.0003 3.24035 20.9475 3.14653 20.8537C3.05271 20.7599 3 20.6327 3 20.5C3 20.3673 3.05271 20.24 3.14653 20.1462L7.2934 16L3.14653 11.8537C3.05271 11.7599 3 11.6327 3 11.5C3 11.3673 3.05271 11.24 3.14653 11.1462C3.24035 11.0524 3.3676 10.9997 3.50028 10.9997C3.63296 10.9997 3.76021 11.0524 3.85403 11.1462L8.00028 15.2931L12.1465 11.1462C12.2403 11.0524 12.3676 10.9997 12.5003 10.9997C12.633 10.9997 12.7602 11.0524 12.854 11.1462C12.9478 11.24 13.0006 11.3673 13.0006 11.5C13.0006 11.6327 12.9478 11.7599 12.854 11.8537L8.70715 16L12.854 20.1462Z" fill="#1F1D1D"/>
</svg>
